<?xml version="1.0" encoding="iso-8859-1"?>
<!-- Generator: Adobe Illustrator 19.0.0, SVG Export Plug-In . SVG Version: 6.00 Build 0)  -->
<svg version="1.1" id="Layer_1" xmlns="http://www.w3.org/2000/svg" xmlns:xlink="http://www.w3.org/1999/xlink" x="0px" y="0px"
	 viewBox="0 0 426.671 426.671" style="enable-background:new 0 0 426.671 426.671;" xml:space="preserve">
<path style="fill:#6AC259;" d="M213.333,25.193C95.535,25.193,0,101.34,0,195.185c0,39.974,17.609,75.401,46.234,105.707
	c11.533,12.207,17.293,29.585,17.293,47.714c0,20.621-8.418,39.313-21.965,52.873c33.335-5.239,61.658-25.485,77.884-53.589
	c28.331,11.089,60.151,17.306,93.892,17.306c117.815,0,213.333-76.113,213.333-170.01C426.667,101.34,331.149,25.193,213.333,25.193
	z M151.573,210.165c-8.358,0-15.078-6.75-15.078-15.07c0-8.29,6.72-15.049,15.078-15.049c8.269,0,15.066,6.758,15.066,15.049
	C166.643,203.415,159.846,210.165,151.573,210.165z M213.342,210.165c-8.299,0-15.083-6.75-15.083-15.07
	c0-8.29,6.784-15.049,15.083-15.049c8.29,0,15.074,6.758,15.074,15.049C228.416,203.415,221.632,210.165,213.342,210.165z
	 M275.102,210.165c-8.277,0-15.066-6.75-15.066-15.07c0-8.29,6.788-15.049,15.066-15.049c8.294,0,15.078,6.758,15.078,15.049
	C290.18,203.415,283.396,210.165,275.102,210.165z"/>
<g>
</g>
<g>
</g>
<g>
</g>
<g>
</g>
<g>
</g>
<g>
</g>
<g>
</g>
<g>
</g>
<g>
</g>
<g>
</g>
<g>
</g>
<g>
</g>
<g>
</g>
<g>
</g>
<g>
</g>
</svg>
