<?xml version="1.0" encoding="UTF-8"?>
<!DOCTYPE svg PUBLIC "-//W3C//DTD SVG 1.1//EN" "http://www.w3.org/Graphics/SVG/1.1/DTD/svg11.dtd">
<!-- Creator: CorelDRAW X7 -->
<svg xmlns="http://www.w3.org/2000/svg" xml:space="preserve" width="0.533331in" height="0.266661in" version="1.1" style="shape-rendering:geometricPrecision; text-rendering:geometricPrecision; image-rendering:optimizeQuality; fill-rule:evenodd; clip-rule:evenodd"
viewBox="0 0 533 267"
 xmlns:xlink="http://www.w3.org/1999/xlink">
 <defs>
  <style type="text/css">
   <![CDATA[
    .fil0 {fill:#D46C3F}
    .fil1 {fill:url(#id0)}
   ]]>
  </style>
  <linearGradient id="id0" gradientUnits="userSpaceOnUse" x1="402.051" y1="255.181" x2="398.799" y2="11.4921">
   <stop offset="0" style="stop-opacity:1; stop-color:#E3691D"/>
   <stop offset="1" style="stop-opacity:1; stop-color:#FDC375"/>
  </linearGradient>
 </defs>
 <g id="Layer_x0020_1">
  <metadata id="CorelCorpID_0Corel-Layer"/>
  <g>
   <path class="fil0" d="M131 27l22 59c3,9 10,14 18,15l61 6 -46 46c-6,6 -8,15 -6,24l13 63 -51 -33c-3,-3 -7,-4 -11,-4 -4,0 -8,1 -11,4l-51 33 14 -63c2,-9 -1,-18 -7,-24l-46 -45 61 -7c8,-1 16,-7 19,-15l21 -59 0 0zm0 -14c-4,0 -8,3 -10,8l-22 60c-1,4 -5,7 -9,8l-62 6c-9,1 -13,14 -6,21l47 46c3,3 4,8 3,12l-14 64c-2,8 4,15 11,15 1,0 3,0 5,-1l52 -34c1,-2 3,-2 5,-2 2,0 4,0 6,2l52 34c1,1 3,1 5,1 6,0 12,-6 10,-15l-14 -64c0,-5 1,-9 4,-12l47 -46c7,-7 3,-20 -7,-21l-62 -6c-4,-1 -7,-4 -9,-8l-22 -60c-2,-5 -6,-8 -10,-8l0 0z"/>
  </g>
  <path class="fil1" d="M504 95l-63 -6c-4,-1 -7,-4 -9,-8l-22 -60c-3,-10 -16,-10 -20,0l-22 60c-1,4 -5,7 -9,8l-62 6c-9,1 -13,14 -6,21l47 46c3,3 4,8 3,12l-14 64c-2,11 8,19 16,14l52 -34c3,-3 8,-3 11,0l52 34c8,5 18,-3 16,-14l-14 -64c-1,-4 0,-9 3,-12l47 -46c7,-7 3,-20 -6,-21l0 0z"/>
  <g>
   <path class="fil0" d="M399 27l22 59c3,9 10,14 18,15l62 6 -46 46c-6,6 -9,15 -7,24l14 63 -51 -33c-4,-3 -8,-4 -11,-4 -4,0 -8,1 -12,4l-50 33 13 -63c2,-9 0,-18 -7,-24l-45 -45 60 -7c9,-1 16,-7 19,-15l21 -59 0 0zm0 -14c-4,0 -8,3 -10,8l-22 60c-1,4 -5,7 -9,8l-62 6c-9,1 -13,14 -6,21l47 46c3,3 4,8 3,12l-14 64c-1,8 4,15 11,15 2,0 3,0 5,-1l52 -34c2,-2 4,-2 6,-2 1,0 3,0 5,2l52 34c2,1 3,1 5,1 7,0 12,-6 11,-15l-14 -64c-1,-5 0,-9 3,-12l47 -46c7,-7 3,-20 -6,-21l-63 -6c-4,-1 -7,-4 -8,-8l-23 -60c-2,-5 -6,-8 -10,-8l0 0z"/>
  </g>
 </g>
</svg>
